
      <svg data-logo="logo" xmlns="http://www.w3.org/2000/svg" viewBox="0 0 282 42">
        <g id="logogram" transform="translate(0, 1) rotate(0) "><path d="M33.724 36.5809C37.7426 32.5622 40.0003 27.1118 40.0003 21.4286C40.0003 15.7454 37.7426 10.2949 33.724 6.27629C29.7054 2.25765 24.2549 1.02188e-06 18.5717 0C12.8885 -1.02188e-06 7.43807 2.25764 3.41943 6.27628L10.4905 13.3473C11.6063 14.4631 13.4081 14.4074 14.8276 13.7181C15.9836 13.1568 17.2622 12.8571 18.5717 12.8571C20.845 12.8571 23.0252 13.7602 24.6326 15.3677C26.2401 16.9751 27.1431 19.1553 27.1431 21.4286C27.1431 22.7381 26.8435 24.0167 26.2822 25.1727C25.5929 26.5922 25.5372 28.394 26.6529 29.5098L33.724 36.5809Z" fill="#7516E9"/><path d="M30 40H19.5098C17.9943 40 16.5408 39.398 15.4692 38.3263L1.67368 24.5308C0.60204 23.4592 0 22.0057 0 20.4902V10L30 40Z" fill="#7516E9"/><path d="M10.7143 39.9999H4.28571C1.91878 39.9999 0 38.0812 0 35.7142V29.2856L10.7143 39.9999Z" fill="#7516E9"/></g>
        <g id="logotype" transform="translate(46, 1)"><path fill="#6504dc" d="M12.23 33L6.53 33L16.33 8.29L21.30 8.29L30.99 33L25.18 33L17.76 12.49L19.76 12.49L12.23 33ZM25.57 28.52L12.09 28.52L12.09 24.04L25.57 24.04L25.57 28.52ZM38.41 33L32.92 33L32.92 8.29L38.41 8.29L38.41 33ZM59.41 33L53.91 33L53.91 8.64L59.41 8.64L59.41 33ZM67.14 13.08L46.18 13.08L46.18 8.29L67.14 8.29L67.14 13.08ZM71.00 33L65.64 33L65.64 15.99L71.00 15.99L71.00 33ZM71.00 23.66L71.00 23.66L68.75 21.91Q69.42 18.93 71.00 17.28Q72.57 15.64 75.37 15.64L75.37 15.64Q76.59 15.64 77.52 16.01Q78.45 16.38 79.15 17.14L79.15 17.14L75.97 21.17Q75.62 20.78 75.09 20.57Q74.56 20.36 73.90 20.36L73.90 20.36Q72.57 20.36 71.78 21.19Q71.00 22.01 71.00 23.66ZM85.21 33L79.85 33L79.85 15.99L85.21 15.99L85.21 33ZM82.55 13.64L82.55 13.64Q81.29 13.64 80.46 12.79Q79.64 11.93 79.64 10.70L79.64 10.70Q79.64 9.44 80.46 8.60Q81.29 7.76 82.55 7.76L82.55 7.76Q83.81 7.76 84.61 8.60Q85.42 9.44 85.42 10.70L85.42 10.70Q85.42 11.93 84.61 12.79Q83.81 13.64 82.55 13.64ZM98.09 33.35L98.09 33.35Q96.37 33.35 94.94 32.69Q93.50 32.02 92.59 30.85Q91.68 29.68 91.54 28.17L91.54 28.17L91.54 20.99Q91.68 19.49 92.59 18.27Q93.50 17.04 94.94 16.34Q96.37 15.64 98.09 15.64L98.09 15.64Q100.50 15.64 102.37 16.79Q104.25 17.95 105.31 19.95Q106.38 21.94 106.38 24.49L106.38 24.49Q106.38 27.05 105.31 29.04Q104.25 31.04 102.37 32.20Q100.50 33.35 98.09 33.35ZM93.57 40.17L88.29 40.17L88.29 15.99L93.64 15.99L93.64 20.36L92.77 24.49L93.57 28.63L93.57 40.17ZM97.11 28.52L97.11 28.52Q98.26 28.52 99.12 27.99Q99.98 27.47 100.47 26.56Q100.96 25.65 100.96 24.49L100.96 24.49Q100.96 23.30 100.47 22.39Q99.98 21.48 99.12 20.98Q98.26 20.47 97.14 20.47L97.14 20.47Q96.02 20.47 95.16 20.98Q94.31 21.48 93.82 22.39Q93.33 23.30 93.33 24.49L93.33 24.49Q93.33 25.65 93.80 26.56Q94.27 27.47 95.15 27.99Q96.02 28.52 97.11 28.52ZM125.18 24.00L119.05 24.00L119.05 19.73L124.37 19.73Q125.39 19.73 126.23 19.31Q127.07 18.89 127.56 18.09Q128.05 17.28 128.05 16.13L128.05 16.13Q128.05 15.01 127.56 14.20Q127.07 13.40 126.23 12.98Q125.39 12.56 124.37 12.56L124.37 12.56L119.05 12.56L119.05 8.29L125.18 8.29Q127.52 8.29 129.41 9.23Q131.30 10.18 132.40 11.95Q133.51 13.71 133.51 16.13L133.51 16.13Q133.51 18.54 132.40 20.31Q131.30 22.08 129.41 23.04Q127.52 24.00 125.18 24.00L125.18 24.00ZM120.35 33L114.85 33L114.85 8.29L120.35 8.29L120.35 33ZM141.00 33L135.64 33L135.64 7.59L141.00 7.59L141.00 33ZM151.18 33.35L151.18 33.35Q148.84 33.35 147.00 32.20Q145.16 31.04 144.09 29.04Q143.03 27.05 143.03 24.49L143.03 24.49Q143.03 21.94 144.09 19.95Q145.16 17.95 147.00 16.79Q148.84 15.64 151.18 15.64L151.18 15.64Q152.90 15.64 154.28 16.30Q155.66 16.97 156.54 18.14Q157.41 19.31 157.52 20.82L157.52 20.82L157.52 28.17Q157.41 29.68 156.55 30.85Q155.70 32.02 154.30 32.69Q152.90 33.35 151.18 33.35ZM152.27 28.52L152.27 28.52Q153.98 28.52 155.03 27.38Q156.08 26.24 156.08 24.49L156.08 24.49Q156.08 23.30 155.61 22.39Q155.14 21.48 154.28 20.98Q153.42 20.47 152.30 20.47L152.30 20.47Q151.18 20.47 150.32 20.98Q149.47 21.48 148.96 22.39Q148.45 23.30 148.45 24.49L148.45 24.49Q148.45 25.65 148.94 26.56Q149.43 27.47 150.31 27.99Q151.18 28.52 152.27 28.52ZM161.12 33L155.87 33L155.87 28.41L156.68 24.28L155.87 20.16L155.87 15.99L161.12 15.99L161.12 33ZM180.79 33L175.44 33L175.44 23.30Q175.44 21.98 174.61 21.15Q173.79 20.33 172.53 20.33L172.53 20.33Q171.66 20.33 170.99 20.70Q170.33 21.06 169.94 21.75Q169.56 22.43 169.56 23.30L169.56 23.30L167.49 22.29Q167.49 20.29 168.37 18.79Q169.24 17.28 170.80 16.46Q172.36 15.64 174.32 15.64L174.32 15.64Q176.21 15.64 177.66 16.53Q179.11 17.42 179.95 18.89Q180.79 20.36 180.79 22.11L180.79 22.11L180.79 33ZM169.56 33L164.20 33L164.20 15.99L169.56 15.99L169.56 33ZM200.11 33L194.76 33L194.76 23.30Q194.76 21.98 193.93 21.15Q193.11 20.33 191.85 20.33L191.85 20.33Q190.98 20.33 190.31 20.70Q189.65 21.06 189.26 21.75Q188.88 22.43 188.88 23.30L188.88 23.30L186.81 22.29Q186.81 20.29 187.69 18.79Q188.56 17.28 190.12 16.46Q191.68 15.64 193.64 15.64L193.64 15.64Q195.53 15.64 196.98 16.53Q198.43 17.42 199.27 18.89Q200.11 20.36 200.11 22.11L200.11 22.11L200.11 33ZM188.88 33L183.52 33L183.52 15.99L188.88 15.99L188.88 33ZM211.24 33.38L211.24 33.38Q208.48 33.38 206.32 32.25Q204.17 31.11 202.95 29.08Q201.72 27.05 201.72 24.49L201.72 24.49Q201.72 21.94 202.93 19.93Q204.14 17.91 206.20 16.76Q208.27 15.60 210.86 15.60L210.86 15.60Q213.38 15.60 215.30 16.69Q217.23 17.77 218.33 19.70Q219.43 21.63 219.43 24.11L219.43 24.11Q219.43 24.56 219.38 25.07Q219.33 25.58 219.19 26.24L219.19 26.24L204.52 26.28L204.52 22.60L216.91 22.57L214.60 24.11Q214.57 22.64 214.15 21.68Q213.73 20.71 212.90 20.21Q212.08 19.70 210.89 19.70L210.89 19.70Q209.63 19.70 208.70 20.28Q207.78 20.85 207.27 21.91Q206.76 22.95 206.76 24.46L206.76 24.46Q206.76 25.96 207.30 27.03Q207.85 28.10 208.84 28.68Q209.84 29.25 211.21 29.25L211.21 29.25Q212.47 29.25 213.48 28.82Q214.50 28.38 215.27 27.50L215.27 27.50L218.21 30.45Q216.95 31.91 215.16 32.65Q213.38 33.38 211.24 33.38ZM226.68 33L221.32 33L221.32 15.99L226.68 15.99L226.68 33ZM226.68 23.66L226.68 23.66L224.44 21.91Q225.10 18.93 226.68 17.28Q228.25 15.64 231.05 15.64L231.05 15.64Q232.28 15.64 233.20 16.01Q234.13 16.38 234.83 17.14L234.83 17.14L231.65 21.17Q231.30 20.78 230.77 20.57Q230.25 20.36 229.58 20.36L229.58 20.36Q228.25 20.36 227.46 21.19Q226.68 22.01 226.68 23.66Z"/></g>
        
      </svg>
    